<svg width="31" height="31" viewBox="0 0 31 31" fill="none" xmlns="http://www.w3.org/2000/svg">
<path d="M25.9089 29.4052L29.9612 25.349C30.4563 24.8539 30.7344 24.1912 30.7344 23.4904C30.7344 22.7896 30.4602 22.127 29.9612 21.6318L25.6004 17.2634C25.1053 16.7683 24.4388 16.4902 23.738 16.4902C23.0334 16.4902 22.3745 16.7645 21.8756 17.2634L18.4593 20.6759C16.648 19.8985 15.0023 18.7815 13.6109 17.3853C12.2056 15.9875 11.0973 14.3536 10.3127 12.5407L13.729 9.12822C14.2241 8.63311 14.5021 7.97041 14.5021 7.26963C14.5034 6.92397 14.4357 6.58154 14.3029 6.26239C14.1702 5.94324 13.9751 5.65381 13.729 5.41104L9.36816 1.03877C8.87305 0.543652 8.20654 0.265625 7.50576 0.265625C6.80117 0.265625 6.14229 0.539844 5.64336 1.03877L1.59101 5.09111C0.745508 5.93662 0.261818 7.10205 0.261818 8.29795C0.261818 8.54551 0.280859 8.78545 0.322754 9.0292C1.15303 14.0718 3.83809 19.0763 7.87519 23.1172C11.9199 27.1543 16.9244 29.8355 21.9708 30.6734C23.4028 30.9134 24.8768 30.4335 25.9089 29.4052ZM22.424 27.9731C17.9337 27.2305 13.4548 24.8158 9.81758 21.1786C6.18037 17.5414 3.76572 13.0663 3.02305 8.57598C2.92783 8.01231 3.11826 7.4334 3.52578 7.02207L7.50576 3.04209L11.7295 7.26201L7.15918 11.8247L7.1249 11.859L7.42959 12.6816C8.34668 15.176 9.79519 17.4411 11.6747 19.32C13.5543 21.1989 15.8199 22.6466 18.3146 23.5628L19.1372 23.8675L23.7342 19.2667L27.9579 23.4866L23.9779 27.4666C23.5666 27.8779 22.9877 28.0684 22.424 27.9731Z" fill="#FE8DA9"/>
</svg>
