<svg width="21" height="25" viewBox="0 0 21 25" fill="none" xmlns="http://www.w3.org/2000/svg">
<path d="M13.4888 10.3389L10.8422 11.4208L13.5862 12.2242C16.4985 13.0769 18.814 15.0953 19.9201 17.6429C18.4435 21.0428 14.81 23.5 10.5 23.5C6.19 23.5 2.55646 21.0428 1.07985 17.6428C2.17152 15.1288 4.44082 13.13 7.29971 12.2583L10.0382 11.4234L7.37541 10.3717C5.22604 9.52281 3.96894 7.89506 3.96894 6.21429C3.96894 3.83804 6.58545 1.5 10.3913 1.5C14.1971 1.5 16.8136 3.83804 16.8136 6.21429C16.8136 7.8737 15.5896 9.48008 13.4888 10.3389Z" fill="#FFF7F7" stroke="black" stroke-width="2"/>
</svg>
