<svg width="318" height="46" viewBox="0 0 318 46" fill="none" xmlns="http://www.w3.org/2000/svg">
<path d="M10.125 40H0.820312V6.25H10.125V20.9922H22.4531V6.25H31.7578V40H22.4531V25.2812H10.125V40ZM44.8828 27.1562C45.8516 27.375 46.8203 27.5469 47.7891 27.6719C48.7578 27.7969 49.7344 27.8594 50.7188 27.8594C51.75 27.8594 52.7031 27.7656 53.5781 27.5781C54.4688 27.375 55.2344 27.0469 55.875 26.5938C56.5312 26.125 57.0469 25.5078 57.4219 24.7422C57.7969 23.9766 57.9844 23.0234 57.9844 21.8828C57.9844 20.9609 57.8594 20.1172 57.6094 19.3516C57.3594 18.5859 56.9844 17.9297 56.4844 17.3828C56 16.8359 55.3984 16.4141 54.6797 16.1172C53.9609 15.8047 53.125 15.6484 52.1719 15.6484C51.2812 15.6484 50.4766 15.8125 49.7578 16.1406C49.0547 16.4688 48.4297 16.9141 47.8828 17.4766C47.3516 18.0234 46.8906 18.6641 46.5 19.3984C46.125 20.1328 45.8125 20.8984 45.5625 21.6953C45.3125 22.4922 45.1328 23.2969 45.0234 24.1094C44.9141 24.9219 44.8594 25.6875 44.8594 26.4062C44.8594 26.5312 44.8594 26.6562 44.8594 26.7812C44.8594 26.9062 44.8672 27.0312 44.8828 27.1562ZM64.4062 21.8125C64.4062 22.9219 64.2266 23.9141 63.8672 24.7891C63.5078 25.6484 63.0156 26.4062 62.3906 27.0625C61.7812 27.7188 61.0703 28.2734 60.2578 28.7266C59.4453 29.1797 58.5781 29.5547 57.6562 29.8516C56.7344 30.1328 55.7812 30.3359 54.7969 30.4609C53.8281 30.5859 52.8828 30.6484 51.9609 30.6484C50.7891 30.6484 49.6328 30.5703 48.4922 30.4141C47.3516 30.2422 46.2266 29.9766 45.1172 29.6172C45.2891 30.6484 45.5625 31.6328 45.9375 32.5703C46.3125 33.4922 46.8125 34.3047 47.4375 35.0078C48.0625 35.6953 48.8281 36.2422 49.7344 36.6484C50.6562 37.0547 51.7422 37.2578 52.9922 37.2578C53.8203 37.2578 54.6094 37.1328 55.3594 36.8828C56.1094 36.6328 56.7969 36.2812 57.4219 35.8281C58.0469 35.375 58.5938 34.8359 59.0625 34.2109C59.5469 33.5859 59.9375 32.8906 60.2344 32.125L63.6562 33.3906C63.1406 34.625 62.4297 35.6953 61.5234 36.6016C60.6328 37.4922 59.6172 38.2344 58.4766 38.8281C57.3516 39.4062 56.1484 39.8359 54.8672 40.1172C53.6016 40.3984 52.3438 40.5391 51.0938 40.5391C49.0312 40.5391 47.125 40.1953 45.375 39.5078C43.625 38.8047 42.1172 37.8281 40.8516 36.5781C39.5859 35.3281 38.5938 33.8359 37.875 32.1016C37.1562 30.3672 36.7969 28.4688 36.7969 26.4062C36.7969 24.3438 37.1562 22.4453 37.875 20.7109C38.5938 18.9766 39.5859 17.4844 40.8516 16.2344C42.1172 14.9844 43.625 14.0156 45.375 13.3281C47.125 12.625 49.0312 12.2734 51.0938 12.2734C52.0938 12.2734 53.1172 12.3438 54.1641 12.4844C55.2109 12.625 56.2266 12.8516 57.2109 13.1641C58.1953 13.4609 59.125 13.8516 60 14.3359C60.875 14.8203 61.6328 15.4219 62.2734 16.1406C62.9297 16.8438 63.4453 17.6641 63.8203 18.6016C64.2109 19.5391 64.4062 20.6094 64.4062 21.8125ZM92.3672 15.3203L87.9141 22.7031C87.7266 22.0781 87.4844 21.375 87.1875 20.5938C86.8906 19.8125 86.5234 19.0859 86.0859 18.4141C85.6484 17.7266 85.125 17.1562 84.5156 16.7031C83.9062 16.2344 83.2031 16 82.4062 16C81.6719 16 81.0312 16.1875 80.4844 16.5625C79.9531 16.9375 79.5 17.4297 79.125 18.0391C78.75 18.6328 78.4375 19.3125 78.1875 20.0781C77.9531 20.8281 77.7656 21.5938 77.625 22.375C77.5 23.1406 77.4141 23.8828 77.3672 24.6016C77.3203 25.3047 77.2969 25.9141 77.2969 26.4297V40H69.3516V12.9297H72.3984L75.6094 19.2344C76.0469 18.2188 76.5469 17.2891 77.1094 16.4453C77.6719 15.5859 78.3203 14.8516 79.0547 14.2422C79.7891 13.6172 80.6172 13.1328 81.5391 12.7891C82.4766 12.4453 83.5312 12.2734 84.7031 12.2734C85.3125 12.2734 85.9922 12.3281 86.7422 12.4375C87.4922 12.5312 88.2266 12.7031 88.9453 12.9531C89.6641 13.1875 90.3281 13.5 90.9375 13.8906C91.5469 14.2813 92.0234 14.7578 92.3672 15.3203ZM111.117 40H102.609L93.75 6.25H103.242L108.844 30.2031L113.812 6.25H122.344L127.781 30.8125L133.898 6.25H139.641L129.82 40H121.289L116.531 18.4375L111.117 40ZM148.289 27.1562C149.258 27.375 150.227 27.5469 151.195 27.6719C152.164 27.7969 153.141 27.8594 154.125 27.8594C155.156 27.8594 156.109 27.7656 156.984 27.5781C157.875 27.375 158.641 27.0469 159.281 26.5938C159.938 26.125 160.453 25.5078 160.828 24.7422C161.203 23.9766 161.391 23.0234 161.391 21.8828C161.391 20.9609 161.266 20.1172 161.016 19.3516C160.766 18.5859 160.391 17.9297 159.891 17.3828C159.406 16.8359 158.805 16.4141 158.086 16.1172C157.367 15.8047 156.531 15.6484 155.578 15.6484C154.688 15.6484 153.883 15.8125 153.164 16.1406C152.461 16.4688 151.836 16.9141 151.289 17.4766C150.758 18.0234 150.297 18.6641 149.906 19.3984C149.531 20.1328 149.219 20.8984 148.969 21.6953C148.719 22.4922 148.539 23.2969 148.43 24.1094C148.32 24.9219 148.266 25.6875 148.266 26.4062C148.266 26.5312 148.266 26.6562 148.266 26.7812C148.266 26.9062 148.273 27.0312 148.289 27.1562ZM167.812 21.8125C167.812 22.9219 167.633 23.9141 167.273 24.7891C166.914 25.6484 166.422 26.4062 165.797 27.0625C165.188 27.7188 164.477 28.2734 163.664 28.7266C162.852 29.1797 161.984 29.5547 161.062 29.8516C160.141 30.1328 159.188 30.3359 158.203 30.4609C157.234 30.5859 156.289 30.6484 155.367 30.6484C154.195 30.6484 153.039 30.5703 151.898 30.4141C150.758 30.2422 149.633 29.9766 148.523 29.6172C148.695 30.6484 148.969 31.6328 149.344 32.5703C149.719 33.4922 150.219 34.3047 150.844 35.0078C151.469 35.6953 152.234 36.2422 153.141 36.6484C154.062 37.0547 155.148 37.2578 156.398 37.2578C157.227 37.2578 158.016 37.1328 158.766 36.8828C159.516 36.6328 160.203 36.2812 160.828 35.8281C161.453 35.375 162 34.8359 162.469 34.2109C162.953 33.5859 163.344 32.8906 163.641 32.125L167.062 33.3906C166.547 34.625 165.836 35.6953 164.93 36.6016C164.039 37.4922 163.023 38.2344 161.883 38.8281C160.758 39.4062 159.555 39.8359 158.273 40.1172C157.008 40.3984 155.75 40.5391 154.5 40.5391C152.438 40.5391 150.531 40.1953 148.781 39.5078C147.031 38.8047 145.523 37.8281 144.258 36.5781C142.992 35.3281 142 33.8359 141.281 32.1016C140.562 30.3672 140.203 28.4688 140.203 26.4062C140.203 24.3438 140.562 22.4453 141.281 20.7109C142 18.9766 142.992 17.4844 144.258 16.2344C145.523 14.9844 147.031 14.0156 148.781 13.3281C150.531 12.625 152.438 12.2734 154.5 12.2734C155.5 12.2734 156.523 12.3438 157.57 12.4844C158.617 12.625 159.633 12.8516 160.617 13.1641C161.602 13.4609 162.531 13.8516 163.406 14.3359C164.281 14.8203 165.039 15.4219 165.68 16.1406C166.336 16.8438 166.852 17.6641 167.227 18.6016C167.617 19.5391 167.812 20.6094 167.812 21.8125ZM180.68 40H172.758V0.460938H175.805L180.68 8.6875V40ZM195.211 40H187.289V0.460938H190.336L195.211 8.6875V40ZM229.5 24.4844C229.5 26.3125 229.273 28.2188 228.82 30.2031C228.383 32.1875 227.766 34.1328 226.969 36.0391C226.172 37.9453 225.219 39.7344 224.109 41.4062C223 43.0938 221.781 44.5469 220.453 45.7656L217.477 44.1484C217.898 43.3672 218.297 42.4922 218.672 41.5234C219.047 40.5547 219.383 39.5312 219.68 38.4531C219.992 37.3594 220.266 36.2344 220.5 35.0781C220.75 33.9219 220.953 32.7812 221.109 31.6562C221.281 30.5156 221.406 29.4141 221.484 28.3516C221.578 27.2734 221.625 26.2734 221.625 25.3516C221.625 24.7422 221.602 24.0938 221.555 23.4062C221.508 22.7031 221.406 22.0078 221.25 21.3203C221.109 20.6172 220.914 19.9453 220.664 19.3047C220.414 18.6641 220.078 18.1016 219.656 17.6172C219.25 17.1328 218.75 16.7422 218.156 16.4453C217.578 16.1484 216.891 16 216.094 16C215.312 16 214.617 16.1797 214.008 16.5391C213.398 16.8828 212.859 17.3438 212.391 17.9219C211.922 18.4844 211.516 19.1328 211.172 19.8672C210.844 20.6016 210.57 21.3594 210.352 22.1406C210.148 22.9062 210 23.6641 209.906 24.4141C209.812 25.1641 209.766 25.8359 209.766 26.4297V40H201.82V12.9297H204.867L208.5 19.2344C208.938 18.1875 209.484 17.2344 210.141 16.375C210.797 15.5156 211.539 14.7812 212.367 14.1719C213.195 13.5625 214.109 13.0938 215.109 12.7656C216.125 12.4375 217.219 12.2734 218.391 12.2734C220.266 12.2734 221.898 12.5781 223.289 13.1875C224.68 13.7969 225.836 14.6484 226.758 15.7422C227.68 16.8203 228.367 18.1094 228.82 19.6094C229.273 21.0938 229.5 22.7188 229.5 24.4844ZM241.242 27.1562C242.211 27.375 243.18 27.5469 244.148 27.6719C245.117 27.7969 246.094 27.8594 247.078 27.8594C248.109 27.8594 249.062 27.7656 249.938 27.5781C250.828 27.375 251.594 27.0469 252.234 26.5938C252.891 26.125 253.406 25.5078 253.781 24.7422C254.156 23.9766 254.344 23.0234 254.344 21.8828C254.344 20.9609 254.219 20.1172 253.969 19.3516C253.719 18.5859 253.344 17.9297 252.844 17.3828C252.359 16.8359 251.758 16.4141 251.039 16.1172C250.32 15.8047 249.484 15.6484 248.531 15.6484C247.641 15.6484 246.836 15.8125 246.117 16.1406C245.414 16.4688 244.789 16.9141 244.242 17.4766C243.711 18.0234 243.25 18.6641 242.859 19.3984C242.484 20.1328 242.172 20.8984 241.922 21.6953C241.672 22.4922 241.492 23.2969 241.383 24.1094C241.273 24.9219 241.219 25.6875 241.219 26.4062C241.219 26.5312 241.219 26.6562 241.219 26.7812C241.219 26.9062 241.227 27.0312 241.242 27.1562ZM260.766 21.8125C260.766 22.9219 260.586 23.9141 260.227 24.7891C259.867 25.6484 259.375 26.4062 258.75 27.0625C258.141 27.7188 257.43 28.2734 256.617 28.7266C255.805 29.1797 254.938 29.5547 254.016 29.8516C253.094 30.1328 252.141 30.3359 251.156 30.4609C250.188 30.5859 249.242 30.6484 248.32 30.6484C247.148 30.6484 245.992 30.5703 244.852 30.4141C243.711 30.2422 242.586 29.9766 241.477 29.6172C241.648 30.6484 241.922 31.6328 242.297 32.5703C242.672 33.4922 243.172 34.3047 243.797 35.0078C244.422 35.6953 245.188 36.2422 246.094 36.6484C247.016 37.0547 248.102 37.2578 249.352 37.2578C250.18 37.2578 250.969 37.1328 251.719 36.8828C252.469 36.6328 253.156 36.2812 253.781 35.8281C254.406 35.375 254.953 34.8359 255.422 34.2109C255.906 33.5859 256.297 32.8906 256.594 32.125L260.016 33.3906C259.5 34.625 258.789 35.6953 257.883 36.6016C256.992 37.4922 255.977 38.2344 254.836 38.8281C253.711 39.4062 252.508 39.8359 251.227 40.1172C249.961 40.3984 248.703 40.5391 247.453 40.5391C245.391 40.5391 243.484 40.1953 241.734 39.5078C239.984 38.8047 238.477 37.8281 237.211 36.5781C235.945 35.3281 234.953 33.8359 234.234 32.1016C233.516 30.3672 233.156 28.4688 233.156 26.4062C233.156 24.3438 233.516 22.4453 234.234 20.7109C234.953 18.9766 235.945 17.4844 237.211 16.2344C238.477 14.9844 239.984 14.0156 241.734 13.3281C243.484 12.625 245.391 12.2734 247.453 12.2734C248.453 12.2734 249.477 12.3438 250.523 12.4844C251.57 12.625 252.586 12.8516 253.57 13.1641C254.555 13.4609 255.484 13.8516 256.359 14.3359C257.234 14.8203 257.992 15.4219 258.633 16.1406C259.289 16.8438 259.805 17.6641 260.18 18.6016C260.57 19.5391 260.766 20.6094 260.766 21.8125ZM289.008 31.3516C289.008 32.5391 288.836 33.5938 288.492 34.5156C288.148 35.4375 287.68 36.2422 287.086 36.9297C286.492 37.6016 285.789 38.1719 284.977 38.6406C284.164 39.0938 283.289 39.4609 282.352 39.7422C281.43 40.0234 280.461 40.2266 279.445 40.3516C278.43 40.4766 277.422 40.5391 276.422 40.5391C275.078 40.5391 273.891 40.4531 272.859 40.2812C271.828 40.1094 270.844 39.8359 269.906 39.4609C268.969 39.0703 268.031 38.5703 267.094 37.9609C266.172 37.3516 265.141 36.6094 264 35.7344L268.617 31.9609C269.039 32.7578 269.594 33.4844 270.281 34.1406C270.984 34.7812 271.711 35.3359 272.461 35.8047C273.211 36.2734 273.938 36.6328 274.641 36.8828C275.344 37.1328 275.914 37.2578 276.352 37.2578C276.711 37.2578 277.117 37.25 277.57 37.2344C278.023 37.2031 278.484 37.1562 278.953 37.0938C279.422 37.0156 279.883 36.9062 280.336 36.7656C280.789 36.625 281.188 36.4375 281.531 36.2031C281.891 35.9531 282.172 35.6484 282.375 35.2891C282.594 34.9141 282.703 34.4688 282.703 33.9531C282.703 33.4219 282.562 32.9609 282.281 32.5703C282.016 32.1641 281.664 31.8125 281.227 31.5156C280.789 31.2188 280.289 30.9688 279.727 30.7656C279.164 30.5625 278.594 30.3828 278.016 30.2266C277.453 30.0703 276.906 29.9375 276.375 29.8281C275.844 29.7031 275.383 29.5859 274.992 29.4766C274.273 29.2734 273.516 29.0703 272.719 28.8672C271.922 28.6484 271.133 28.4062 270.352 28.1406C269.57 27.8594 268.82 27.5312 268.102 27.1562C267.398 26.7812 266.773 26.3359 266.227 25.8203C265.695 25.2891 265.266 24.6719 264.938 23.9688C264.625 23.25 264.469 22.4141 264.469 21.4609C264.469 19.7109 264.812 18.25 265.5 17.0781C266.203 15.8906 267.125 14.9453 268.266 14.2422C269.406 13.5234 270.703 13.0156 272.156 12.7188C273.609 12.4219 275.086 12.2734 276.586 12.2734C277.617 12.2734 278.703 12.3828 279.844 12.6016C280.984 12.8047 282.094 13.1172 283.172 13.5391C284.25 13.9453 285.258 14.4453 286.195 15.0391C287.133 15.6328 287.914 16.3125 288.539 17.0781L283.922 20.875C283.578 19.9375 283.125 19.1328 282.562 18.4609C282.016 17.7891 281.414 17.2422 280.758 16.8203C280.117 16.3828 279.453 16.0625 278.766 15.8594C278.094 15.6562 277.469 15.5547 276.891 15.5547C276.328 15.5547 275.695 15.5781 274.992 15.625C274.289 15.6719 273.625 15.8047 273 16.0234C272.391 16.2422 271.867 16.5781 271.43 17.0312C271.008 17.4688 270.797 18.0781 270.797 18.8594C270.797 19.4219 270.922 19.9062 271.172 20.3125C271.438 20.7031 271.781 21.0469 272.203 21.3438C272.625 21.625 273.102 21.8672 273.633 22.0703C274.18 22.2578 274.734 22.4297 275.297 22.5859C275.859 22.7266 276.406 22.8516 276.938 22.9609C277.469 23.0703 277.945 23.1875 278.367 23.3125C279.086 23.5156 279.844 23.7266 280.641 23.9453C281.453 24.1484 282.25 24.3906 283.031 24.6719C283.812 24.9375 284.562 25.2578 285.281 25.6328C286.016 25.9922 286.656 26.4375 287.203 26.9688C287.75 27.5 288.188 28.125 288.516 28.8438C288.844 29.5469 289.008 30.3828 289.008 31.3516ZM317.32 31.3516C317.32 32.5391 317.148 33.5938 316.805 34.5156C316.461 35.4375 315.992 36.2422 315.398 36.9297C314.805 37.6016 314.102 38.1719 313.289 38.6406C312.477 39.0938 311.602 39.4609 310.664 39.7422C309.742 40.0234 308.773 40.2266 307.758 40.3516C306.742 40.4766 305.734 40.5391 304.734 40.5391C303.391 40.5391 302.203 40.4531 301.172 40.2812C300.141 40.1094 299.156 39.8359 298.219 39.4609C297.281 39.0703 296.344 38.5703 295.406 37.9609C294.484 37.3516 293.453 36.6094 292.312 35.7344L296.93 31.9609C297.352 32.7578 297.906 33.4844 298.594 34.1406C299.297 34.7812 300.023 35.3359 300.773 35.8047C301.523 36.2734 302.25 36.6328 302.953 36.8828C303.656 37.1328 304.227 37.2578 304.664 37.2578C305.023 37.2578 305.43 37.25 305.883 37.2344C306.336 37.2031 306.797 37.1562 307.266 37.0938C307.734 37.0156 308.195 36.9062 308.648 36.7656C309.102 36.625 309.5 36.4375 309.844 36.2031C310.203 35.9531 310.484 35.6484 310.688 35.2891C310.906 34.9141 311.016 34.4688 311.016 33.9531C311.016 33.4219 310.875 32.9609 310.594 32.5703C310.328 32.1641 309.977 31.8125 309.539 31.5156C309.102 31.2188 308.602 30.9688 308.039 30.7656C307.477 30.5625 306.906 30.3828 306.328 30.2266C305.766 30.0703 305.219 29.9375 304.688 29.8281C304.156 29.7031 303.695 29.5859 303.305 29.4766C302.586 29.2734 301.828 29.0703 301.031 28.8672C300.234 28.6484 299.445 28.4062 298.664 28.1406C297.883 27.8594 297.133 27.5312 296.414 27.1562C295.711 26.7812 295.086 26.3359 294.539 25.8203C294.008 25.2891 293.578 24.6719 293.25 23.9688C292.938 23.25 292.781 22.4141 292.781 21.4609C292.781 19.7109 293.125 18.25 293.812 17.0781C294.516 15.8906 295.438 14.9453 296.578 14.2422C297.719 13.5234 299.016 13.0156 300.469 12.7188C301.922 12.4219 303.398 12.2734 304.898 12.2734C305.93 12.2734 307.016 12.3828 308.156 12.6016C309.297 12.8047 310.406 13.1172 311.484 13.5391C312.562 13.9453 313.57 14.4453 314.508 15.0391C315.445 15.6328 316.227 16.3125 316.852 17.0781L312.234 20.875C311.891 19.9375 311.438 19.1328 310.875 18.4609C310.328 17.7891 309.727 17.2422 309.07 16.8203C308.43 16.3828 307.766 16.0625 307.078 15.8594C306.406 15.6562 305.781 15.5547 305.203 15.5547C304.641 15.5547 304.008 15.5781 303.305 15.625C302.602 15.6719 301.938 15.8047 301.312 16.0234C300.703 16.2422 300.18 16.5781 299.742 17.0312C299.32 17.4688 299.109 18.0781 299.109 18.8594C299.109 19.4219 299.234 19.9062 299.484 20.3125C299.75 20.7031 300.094 21.0469 300.516 21.3438C300.938 21.625 301.414 21.8672 301.945 22.0703C302.492 22.2578 303.047 22.4297 303.609 22.5859C304.172 22.7266 304.719 22.8516 305.25 22.9609C305.781 23.0703 306.258 23.1875 306.68 23.3125C307.398 23.5156 308.156 23.7266 308.953 23.9453C309.766 24.1484 310.562 24.3906 311.344 24.6719C312.125 24.9375 312.875 25.2578 313.594 25.6328C314.328 25.9922 314.969 26.4375 315.516 26.9688C316.062 27.5 316.5 28.125 316.828 28.8438C317.156 29.5469 317.32 30.3828 317.32 31.3516Z" fill="#FE8DA9"/>
</svg>
