<svg width="32" height="25" viewBox="0 0 32 25" fill="none" xmlns="http://www.w3.org/2000/svg">
<path fill-rule="evenodd" clip-rule="evenodd" d="M0 2.96786C0 1.32876 1.32876 0 2.96786 0H29.0321C30.6712 0 32 1.32876 32 2.96786C32 4.60696 30.6712 5.93572 29.0321 5.93572H2.96786C1.32875 5.93572 0 4.60696 0 2.96786ZM0 12.5392C0 10.9001 1.32876 9.57134 2.96786 9.57134H29.0321C30.6712 9.57134 32 10.9001 32 12.5392C32 14.1783 30.6712 15.5071 29.0321 15.5071H2.96786C1.32875 15.5071 0 14.1783 0 12.5392ZM2.96786 19.0643C1.32876 19.0643 0 20.393 0 22.0321C0 23.6712 1.32875 25 2.96786 25H29.0321C30.6712 25 32 23.6712 32 22.0321C32 20.393 30.6712 19.0643 29.0321 19.0643H2.96786Z" fill="black"/>
</svg>
